<?xml version="1.0" standalone="no"?>
<!DOCTYPE svg PUBLIC "-//W3C//DTD SVG 1.1//EN" "http://www.w3.org/Graphics/SVG/1.1/DTD/svg11.dtd" >
<svg xmlns="http://www.w3.org/2000/svg">
<metadata></metadata>
<defs>
<font id="homizioregular" horiz-adv-x="1227" >
<font-face units-per-em="2048" ascent="1638" descent="-410" />
<missing-glyph horiz-adv-x="561" />
<glyph unicode="AE" horiz-adv-x="1587" d="M5 0l696 1434h814v-133h-557v-517h517v-126h-517v-532h588v-126h-722v434h-457q-52 -105 -106.5 -217.5t-105.5 -216.5h-150zM426 561h398v740h-44q-45 -95 -89 -186.5t-87.5 -183t-87.5 -183.5t-90 -187z" />
<glyph unicode="ae" horiz-adv-x="1826" d="M245 275q8 83 43 145.5t88.5 104.5t121 63.5t139.5 21.5q64 0 128.5 -17t124.5 -50q0 29 -0.5 59.5t-0.5 59.5q-7 130 -61 198.5t-157 68.5q-171 -2 -305 -125l-82 85q153 161 395 159q161 0 229 -78q24 -28 42 -55.5t32 -55.5q123 189 369 189q193 0 297 -137 q102 -132 102 -363v-59h-729q4 -87 25.5 -161.5t63.5 -124.5q88 -108 243 -108q158 0 300 115l61 -101q-184 -133 -379 -133q-259 0 -375 204q-95 -107 -188.5 -155.5t-202.5 -48.5q-148 0 -236 85q-88 84 -88 214zM377 277q0 -80 52 -131q27 -25 64 -38t85 -13 q69 0 122.5 17t95.5 51v-1q82 67 92 111v148q-62 40 -123 58t-118 18t-106 -16t-86 -45t-57.5 -69.5t-20.5 -89.5zM1028 608h591q-10 155 -80 238t-192 83q-65 0 -119.5 -22.5t-96.5 -65.5q-79 -83 -103 -233z" />
<glyph unicode="OE" horiz-adv-x="1755" d="M46 702q0 172 46.5 308.5t140.5 239.5q187 207 516 207q69 0 135 -5.5t127 -17.5h668v-127h-556v-521h516v-126h-516v-534h588v-126h-701q-81 -12 -153 -18t-124 -6q-326 0 -507 204q-180 201 -180 522zM184 713q0 -134 38.5 -248t104.5 -196q72 -81 173.5 -123.5 t230.5 -42.5q63 0 126.5 6.5t130.5 19.5v1180q-60 11 -121 16.5t-124 5.5q-257 0 -408 -171q-151 -173 -151 -447z" />
<glyph unicode="oe" horiz-adv-x="1844" d="M56 506q0 254 137 399q138 143 359 143q156 0 270 -81q47 -34 82 -76.5t58 -96.5q63 122 161.5 188t232.5 66q193 0 296 -136q102 -129 102 -364v-59h-729q4 -86 26 -160.5t63 -125.5v1q88 -109 242 -109q161 0 330 133l52 -110q-104 -71 -201.5 -106.5t-193.5 -35.5 q-136 0 -232.5 64.5t-152.5 189.5q-62 -125 -166 -189.5t-250 -64.5q-227 0 -357 150q-129 147 -129 380zM187 504q0 -187 96 -298t262 -111q168 0 260 109q91 109 91 308q0 203 -90 310t-257 107q-165 0 -264 -111q-98 -110 -98 -314zM1032 608h590q-10 155 -80 238 t-192 83q-66 0 -120 -23t-97 -66q-80 -84 -101 -232z" />
<glyph unicode="&#xfb01;" horiz-adv-x="856" d="M12 905v119h177v152q0 164 83 250q85 87 210 87q34 0 75 -11.5t91 -36.5l-55 -110q-26 19 -54 29t-61 10q-162 0 -162 -226v-144h491v-1024h-127v905h-364v-905h-127v905h-177z" />
<glyph unicode="&#xfb02;" horiz-adv-x="1117" d="M23 905v119h177v152q0 164 84 250q85 87 210 87q291 0 324 -213v-1027q0 -92 28 -133t94 -41q50 0 138 49v-128q-42 -20 -79.5 -29.5t-69.5 -9.5q-238 0 -238 281v1035q-17 44 -67.5 70.5t-133.5 26.5q-163 0 -163 -226v-144h261v-119h-261v-905h-127v905h-177z" />
<glyph horiz-adv-x="2048" />
<glyph horiz-adv-x="2048" />
<glyph unicode="&#xd;" horiz-adv-x="199" />
<glyph unicode=" "  horiz-adv-x="561" />
<glyph unicode="&#x09;" horiz-adv-x="561" />
<glyph unicode="&#xa0;" horiz-adv-x="561" />
<glyph unicode="!" horiz-adv-x="220" d="M13 80q0 43 27.5 69.5t68.5 26.5t69.5 -26.5t28.5 -69.5q0 -41 -28.5 -69t-69.5 -28t-68.5 28t-27.5 69zM37 1419h140l-9 -1031h-122z" />
<glyph unicode="&#x22;" horiz-adv-x="498" d="M60 1419h130l-9 -471h-112zM298 1419h131l-10 -471h-111z" />
<glyph unicode="#" horiz-adv-x="1136" d="M6 502l28 114h267q9 40 17 76t16 71t16 71t17 76h-282l28 114h277q20 95 42.5 197.5t42.5 197.5h117l-85 -395h219q20 95 42 197.5t42 197.5h118l-86 -395h265l-28 -114h-260q-9 -40 -17 -75.5t-15.5 -70.5t-15.5 -71.5t-17 -76.5h274l-27 -114h-270q-20 -92 -42 -192 t-41 -192h-118l83 384h-217q-20 -92 -42 -192t-41 -192h-118l83 384h-272zM419 616h217q9 40 17 76t16 71t16 71t17 76h-218q-10 -44 -17 -76q-8 -35 -15.5 -70t-15.5 -71.5t-17 -76.5z" />
<glyph unicode="$" horiz-adv-x="785" d="M15 86v144q82 -52 161 -80t154 -31v545q-94 54 -155.5 100.5t-93.5 86.5q-66 84 -66 199q0 69 23 129.5t67 111.5q83 96 225 123v178h113v-173q140 -3 251 -48v-146q-116 69 -251 72v-553q87 -48 146.5 -92t94.5 -86q73 -88 73 -204q0 -70 -23 -130.5t-64 -108.5 q-41 -45 -99.5 -74.5t-127.5 -42.5v-207h-113v201q-84 4 -165 25.5t-150 60.5zM146 1062q0 -81 40 -136q19 -27 55 -56.5t89 -61.5v483q-39 -10 -72 -28t-57 -46q-55 -61 -55 -155zM443 126q93 22 138 79.5t45 139.5q0 38 -11.5 74t-31.5 64q-20 26 -54.5 54.5t-85.5 59.5 v-471z" />
<glyph unicode="%" horiz-adv-x="1551" d="M45 1070q0 177 97 275q96 101 252 101q154 0 243 -101q90 -98 90 -273q0 -156 -94 -264q-93 -106 -249 -106q-157 0 -248 104q-91 103 -91 264zM172 1068q0 -116 57 -185q57 -66 157 -66t157 68q58 72 58 189q0 126 -56.5 190t-152.5 64q-103 0 -161.5 -68t-58.5 -192z M257 -32l854 1449h136l-850 -1449h-140zM800 345q0 176 98 277q99 99 250 99q152 0 244 -101q89 -100 89 -274q0 -158 -93 -263q-95 -107 -249 -107q-156 0 -249 104q-90 104 -90 265zM927 343q0 -119 57 -185q56 -67 157 -67q100 0 157 68q58 68 58 189q0 128 -56 191.5 t-154 63.5q-100 0 -159 -68q-60 -69 -60 -192z" />
<glyph unicode="&#x26;" horiz-adv-x="1343" d="M44 366q0 136 76 238t232 177q-69 85 -106.5 167.5t-37.5 154.5q0 141 100 240q102 99 259 99q145 0 230 -85q84 -84 84 -213q0 -136 -84 -237q-40 -47 -95 -86.5t-138 -77.5q35 -37 75 -78t87.5 -88t103 -101t121.5 -115q106 170 113 407h131q-4 -137 -43 -260.5 t-113 -235.5q40 -39 81.5 -79t79.5 -76t71.5 -67t57.5 -53l-197 3l-176 173q-194 -197 -463 -197q-210 0 -330 109q-119 110 -119 281zM176 372q0 -119 85 -199h-1q87 -78 241 -78q103 0 194 41t174 123q-154 149 -260 254t-170 175q-125 -60 -194 -139.5t-69 -176.5z M339 1101q0 -112 135 -267q152 70 214 138q61 67 61 161q0 87 -54 137q-55 52 -137 52q-99 0 -159 -64q-60 -63 -60 -157z" />
<glyph unicode="'" horiz-adv-x="233" d="M48 1419h131l-9 -471h-112z" />
<glyph unicode="(" horiz-adv-x="461" d="M15 544q0 527 306 875h146q-325 -374 -325 -873q0 -472 319 -860h-144q-302 355 -302 858z" />
<glyph unicode=")" horiz-adv-x="462" d="M-13 1419h145q306 -351 306 -875q0 -506 -302 -858h-143q318 388 318 860q0 498 -324 873z" />
<glyph unicode="*" horiz-adv-x="740" d="M7 1089l36 122l270 -96q-4 75 -8 153.5t-7 150.5h130l-13 -304q65 23 135.5 48.5t132.5 47.5l37 -122l-274 -69q45 -61 94 -126t93 -125l-106 -72l-162 259q-40 -62 -84 -130.5t-82 -128.5l-104 72l187 251q-66 17 -138.5 35t-136.5 34z" />
<glyph unicode="+" horiz-adv-x="917" d="M-6 534v119h397v397h119v-397h396v-119h-396v-396h-119v396h-397z" />
<glyph unicode="," horiz-adv-x="283" d="M-5 -239l156 496h140l-181 -496h-115z" />
<glyph unicode="-" horiz-adv-x="708" d="M64 534v125h565v-125h-565z" />
<glyph unicode="." horiz-adv-x="278" d="M40 80q0 43 28 69.5t68 26.5q41 0 70 -26.5t29 -69.5q0 -41 -29 -69t-70 -28q-40 0 -68 28t-28 69z" />
<glyph unicode="/" horiz-adv-x="797" d="M-18 -229l684 1648h134l-688 -1648h-130z" />
<glyph unicode="0" horiz-adv-x="986" d="M47 679q0 379 117.5 571t337.5 192q418 0 418 -727q0 -358 -116 -546q-118 -193 -332 -193q-200 0 -315 184q-56 90 -83 219t-27 300zM178 691q0 -293 82 -448q79 -148 224 -148q141 0 220 151q84 160 84 456q0 620 -294 620q-149 0 -232.5 -157.5t-83.5 -473.5z" />
<glyph unicode="1" horiz-adv-x="524" d="M-15 1185v129l465 161v-1475h-127v1305q-39 -14 -83 -29.5t-88.5 -31.5t-87 -31t-79.5 -28z" />
<glyph unicode="2" horiz-adv-x="913" d="M41 0v122l381 405q97 105 164.5 185.5t96.5 127.5q61 98 61 218q0 126 -69.5 195t-198.5 69q-177 0 -364 -166v156q171 130 375 130q185 0 286 -101q102 -102 102 -269q0 -148 -71 -267q-70 -118 -295 -357l-311 -329h669v-119h-826z" />
<glyph unicode="3" horiz-adv-x="855" d="M15 57v146q183 -108 317 -108q80 0 142 19.5t106 60.5q88 80 88 209q0 144 -103.5 218t-293.5 74h-126v119h114q177 0 268 73t91 208q0 116 -65 181t-191 65q-125 0 -292 -106v142q169 84 305 84q171 0 273 -94h-1q103 -93 103 -249q0 -259 -220 -352q106 -25 177 -102 q92 -98 92 -248q0 -190 -132 -306q-131 -115 -337 -115q-159 0 -315 81z" />
<glyph unicode="4" horiz-adv-x="982" d="M-6 391v98l645 930h118v-910h184v-118h-184v-391h-127v391h-636zM153 509h477v635v54l-15 -23z" />
<glyph unicode="5" horiz-adv-x="823" d="M38 35v147q157 -87 283 -87q163 0 252 88t89 235q0 317 -364 317q-76 -1 -131.5 -13.5t-91.5 -39.5v737h660v-120h-533v-450q90 6 128 6q114 0 200.5 -29t145 -83.5t88 -134t29.5 -179.5q0 -202 -125 -327q-126 -126 -355 -126q-157 0 -275 59z" />
<glyph unicode="6" horiz-adv-x="945" d="M43 625q0 370 143 591q147 226 412 226q60 0 114.5 -10t105.5 -30v-138q-123 58 -222 58q-194 0 -308 -184q-102 -165 -114 -418q109 182 328 182q87 0 160 -33t127 -96q53 -63 80.5 -142.5t27.5 -173.5q0 -106 -29.5 -191.5t-91.5 -153.5q-121 -136 -310 -136 q-199 0 -314 169q-109 166 -109 480zM183 471q0 -153 82 -267q79 -109 209 -109q124 0 207 96q84 96 84 248q0 155 -77 250q-77 93 -206 93q-64 0 -117.5 -24.5t-96.5 -71.5q-41 -48 -63 -102.5t-22 -112.5z" />
<glyph unicode="7" horiz-adv-x="888" d="M-2 1299v120h870v-49l-559 -1370h-138l535 1299h-708z" />
<glyph unicode="8" horiz-adv-x="951" d="M43 345q0 259 288 394q-121 65 -181 151t-60 198q0 152 111 253h-1q112 101 285 101q161 0 259 -93q101 -92 101 -239q0 -235 -254 -365q299 -123 299 -387q0 -170 -119 -276q-60 -53 -142 -79.5t-191 -26.5q-176 0 -287 102q-108 103 -108 267zM173 348q0 -109 78 -181 q79 -72 216 -72q138 0 216 72q77 75 77 179q0 118 -75 195.5t-229 130.5q-154 -64 -217 -136q-66 -74 -66 -188zM221 1101q0 -190 241 -295q252 103 252 293q0 105 -66 164q-65 59 -176 59q-52 0 -97.5 -16.5t-82.5 -47.5q-35 -32 -53 -71t-18 -86z" />
<glyph unicode="9" horiz-adv-x="946" d="M30 967q0 212 122 343q126 132 314 132q196 0 308 -166h-1q112 -161 112 -478q0 -195 -36.5 -347t-106.5 -259q-72 -103 -178 -159.5t-241 -56.5q-107 0 -220 41v141q135 -63 222 -63q198 0 306 150t121 447q-104 -167 -322 -167q-88 0 -160.5 31t-128.5 94 q-111 124 -111 317zM162 986q0 -162 81 -253q80 -89 208 -89q121 0 205 86q86 89 86 209q0 172 -83 278q-78 105 -206 105q-127 0 -208 -94q-83 -95 -83 -242z" />
<glyph unicode=":" horiz-adv-x="253" d="M28 80q0 43 28 69.5t69 26.5t69.5 -26.5t28.5 -69.5q0 -41 -28.5 -69t-69.5 -28t-69 28t-28 69zM28 946q0 41 28 68t69 27t69.5 -27t28.5 -68t-28.5 -69.5t-69.5 -28.5t-69 28.5t-28 69.5z" />
<glyph unicode=";" horiz-adv-x="294" d="M-12 -239l156 496h141l-182 -496h-115zM100 946q0 41 26.5 68t69.5 27q41 0 69 -27t28 -68t-28 -69.5t-69 -28.5q-43 0 -69.5 28.5t-26.5 69.5z" />
<glyph unicode="&#x3c;" horiz-adv-x="910" d="M-10 566v39l840 472v-134l-634 -355q157 -78 317.5 -156.5t316.5 -155.5v-136z" />
<glyph unicode="=" horiz-adv-x="1001" d="M68 348v120h911v-120h-911zM68 722v119h911v-119h-911z" />
<glyph unicode="&#x3e;" horiz-adv-x="909" d="M62 140v136l634 312q-157 88 -317 177.5t-317 177.5v134l840 -472v-39z" />
<glyph unicode="?" horiz-adv-x="754" d="M-11 1251q117 185 391 191q75 0 140 -21.5t112.5 -63t74.5 -101.5t27 -137q0 -58 -16 -105.5t-41.5 -87.5t-58 -75t-66.5 -68q-49 -47 -80.5 -78.5t-49.5 -57t-24.5 -49t-6.5 -54.5q0 -42 9.5 -85t20.5 -76h-118q-6 15 -11 34t-9 40.5t-6.5 43.5t-2.5 42q0 47 13 86.5 t36 74.5t54 67t68 64q29 27 57.5 56t51 62.5t36 72.5t13.5 84q0 48 -16.5 86.5t-46 65.5t-71 41t-90.5 14q-86 0 -161 -33.5t-122 -93.5zM255 80q0 43 27.5 69.5t67.5 26.5q42 0 70.5 -26.5t28.5 -69.5q0 -20 -7.5 -38t-21 -31t-31.5 -20.5t-39 -7.5q-40 0 -67.5 28 t-27.5 69z" />
<glyph unicode="@" horiz-adv-x="1701" d="M51 612q0 353 232 591q233 239 581 239q344 0 554 -204t210 -517q0 -117 -27 -214t-81 -172q-53 -73 -122.5 -113.5t-150.5 -40.5q-200 0 -240 184q-93 -184 -275 -184q-144 0 -229 103q-42 51 -62 118.5t-20 152.5q0 226 114 376q116 154 304 154q81 0 142 -43 q34 -23 53 -48l4 40q2 20 4 37h123l-51 -583q0 -188 128 -188q109 0 180 112q75 115 75 299q0 279 -168 446q-170 165 -475 165q-145 0 -268 -53.5t-217 -150.5q-92 -102 -139.5 -229.5t-47.5 -276.5q0 -309 178 -491q177 -183 487 -183q234 0 414 90l72 -89 q-264 -120 -496 -120q-355 0 -571 220q-215 223 -215 573zM552 563q0 -122 50 -192.5t140 -70.5q118 0 191 124q75 130 75 332q0 104 -46 157t-127 53q-130 0 -205 -108q-78 -111 -78 -295z" />
<glyph unicode="A" d="M7 0l541 1434h119l535 -1434h-150l-159 434h-578q-39 -106 -80.5 -217.5t-79.5 -216.5h-148zM363 561h482l-226 619q-5 12 -8 24.5t-7 24.5q-9 -29 -16 -48v1q-29 -81 -57 -157.5t-55.5 -153t-55.5 -153t-57 -157.5z" />
<glyph unicode="B" horiz-adv-x="947" d="M65 0v1434h386q171 0 275 -93q104 -95 104 -249q0 -113 -52 -198.5t-148 -132.5q108 -26 178 -100q89 -95 89 -243q0 -184 -120 -301t-318 -117h-394zM200 126h240q155 0 237 73.5t82 210.5q0 269 -373 269h-186v-553zM200 806h175q144 0 231 72q85 73 85 197 q0 232 -278 232h-213v-501z" />
<glyph unicode="C" horiz-adv-x="1193" d="M39 689q0 348 202 557q201 211 511 211q229 -4 406 -155l-106 -96q-68 63 -143.5 94t-158.5 31q-253 0 -413 -172q-159 -172 -159 -460q0 -277 151 -437h-1q151 -159 386 -159q83 0 158.5 31t143.5 94l106 -96q-179 -152 -416 -156q-294 0 -482 197q-185 200 -185 516z " />
<glyph unicode="D" horiz-adv-x="1220" d="M67 0v1434h369q178 0 314 -45t228 -133t139 -218.5t47 -301.5q0 -326 -200 -532q-200 -204 -549 -204h-348zM202 126h200q302 0 463 155q160 156 160 452q0 574 -604 574h-219v-1181z" />
<glyph unicode="E" horiz-adv-x="785" d="M63 0v1434h691v-127h-556v-521h516v-126h-516v-534h588v-126h-723z" />
<glyph unicode="F" horiz-adv-x="748" d="M62 0v1434h691v-127h-556v-531h516v-126h-516v-650h-135z" />
<glyph unicode="G" horiz-adv-x="1223" d="M38 697q0 323 195 541q195 219 521 219q219 -5 395 -155l-106 -96q-134 125 -302 125q-255 0 -410 -173q-154 -173 -154 -447q0 -140 37.5 -253.5t106.5 -194.5q73 -78 171 -119t221 -41q91 0 167 17.5t144 55.5v430h-329v127h464v-627q-232 -130 -464 -130 q-294 0 -476 200q-181 199 -181 521z" />
<glyph unicode="H" horiz-adv-x="1175" d="M64 0v1434h136v-638h759v638h135v-1434h-135v669h-759v-669h-136z" />
<glyph unicode="I" horiz-adv-x="259" d="M57 0v1434h135v-1434h-135z" />
<glyph unicode="J" horiz-adv-x="549" d="M-23 -203l51 124q47 -19 93 -19q124 0 178.5 96.5t54.5 302.5v1133h135v-1135q0 -525 -370 -525q-27 0 -62 5.5t-80 17.5z" />
<glyph unicode="K" horiz-adv-x="997" d="M62 0v1434h135v-626q67 75 138.5 154.5t144 159.5t143.5 159t139 153h178l-629 -696q81 -89 165 -182t169 -187t169 -187t164 -182h-188l-593 666v-666h-135z" />
<glyph unicode="L" horiz-adv-x="750" d="M60 0v1434h135v-1308h560v-126h-695z" />
<glyph unicode="M" horiz-adv-x="1490" d="M65 0v1434h120l528 -1139q0 -1 0.5 -3t0.5 -3q2 -6 4.5 -11.5t4.5 -7.5l-1 3l3 -6q5 -18 10 -28q2 -4 3 -6.5t3 -6.5q4 10 9.5 28t16.5 46l520 1134h118v-1434h-131v1010l6 115q-129 -281 -257.5 -563t-256.5 -562h-55l-514 1122q1 -22 2 -44.5t1 -44.5v-1033h-135z" />
<glyph unicode="N" horiz-adv-x="1235" d="M62 0v1434h103l831 -1126q6 -8 12 -16.5t13 -19.5q-1 15 -1 28v24v1110h135v-1434h-97l-837 1135q-5 8 -11.5 16.5t-12.5 17.5v-1169h-135z" />
<glyph unicode="O" horiz-adv-x="1447" d="M42 702q0 341 185 547q186 208 508 208q292 0 470 -200q180 -198 180 -519q0 -353 -183 -557q-187 -205 -494 -205q-304 0 -486 203q-180 201 -180 523zM180 713q0 -281 144 -446q141 -164 382 -164q125 0 224 42t171 120q70 81 108 197t38 261q0 290 -143 448 q-142 160 -386 160q-235 0 -386 -169q-152 -172 -152 -449z" />
<glyph unicode="P" horiz-adv-x="884" d="M59 0v1434h356q226 0 344 -104t118 -307q0 -202 -133 -333q-134 -131 -369 -131h-181v-559h-135zM194 687h179q181 0 273.5 85t92.5 240q0 295 -341 295h-204v-620z" />
<glyph unicode="Q" horiz-adv-x="1423" d="M28 702q0 341 185 547q186 208 508 208q292 0 471 -200q180 -200 180 -519q0 -354 -177 -550q-172 -192 -438 -210q1 -90 29.5 -125t93.5 -35q50 0 104 33l40 -110q-89 -43 -155 -43q-233 0 -241 281q-131 10 -236.5 61t-190.5 147q-173 194 -173 515zM166 713 q0 -281 144 -446q143 -164 383 -164q124 0 223 42t172 120q69 81 107 197t38 261q0 290 -143 448q-71 80 -166 120t-220 40q-235 0 -386 -169q-152 -172 -152 -449z" />
<glyph unicode="R" horiz-adv-x="968" d="M58 0v1434h407q192 0 304 -106v1q111 -105 111 -277q0 -157 -91 -265q-84 -99 -229 -132q45 -79 92.5 -162t95 -166.5t94.5 -166t92 -160.5h-153l-351 622h-236v-622h-136zM194 748h220q153 0 241 79q87 76 87 215q0 124 -79.5 194.5t-227.5 70.5h-241v-559z" />
<glyph unicode="S" horiz-adv-x="851" d="M14 106l84 102q131 -104 263 -104h5q152 0 230 62q80 62 79 175q0 99 -52 157q-28 31 -88 73.5t-154 96.5q-215 127 -275 212q-59 87 -59 204q0 157 121 265t319 108q183 -7 334 -128l-84 -102q-129 104 -262 104q-137 0 -213 -67q-76 -66 -76 -169q0 -50 12.5 -89 t38.5 -68q27 -29 90.5 -73t151.5 -95q94 -54 162.5 -107t102.5 -96q69 -89 69 -209q0 -170 -118 -276q-114 -104 -338 -104h-9h-1q-181 7 -333 128z" />
<glyph unicode="T" horiz-adv-x="946" d="M-3 1307v127h939v-127h-402v-1307h-135v1307h-402z" />
<glyph unicode="U" horiz-adv-x="1125" d="M51 556v878h135v-865q0 -466 375 -466q363 0 363 453v878h134v-857q0 -601 -515 -601q-492 0 -492 580z" />
<glyph unicode="V" horiz-adv-x="1205" d="M5 1434h150l409 -1136q5 -17 10 -32.5t10 -31.5q5 15 10.5 31t11.5 35l434 1134h145l-556 -1434h-99z" />
<glyph unicode="W" horiz-adv-x="1820" d="M29 1434h149l322 -1132v1q5 -15 7.5 -28.5t6.5 -26.5q4 13 8 26.5t9 28.5q42 135 86 278t88 288t88 287.5t86 277.5h78l320 -1132q4 -15 7.5 -28t7.5 -27q81 295 164 593.5t164 593.5h145l-420 -1434h-109l-314 1063q-7 21 -12 41q-3 -9 -5.5 -18.5t-5.5 -20.5 q-82 -261 -167.5 -533t-167.5 -532h-109z" />
<glyph unicode="X" horiz-adv-x="1126" d="M23 0l454 724q-51 85 -105 174.5t-108.5 180t-108.5 180t-105 175.5h161l318 -534q9 -15 18 -31.5t18 -33.5l18 32l18 32l317 535h157l-430 -709q53 -87 108.5 -179t111.5 -184t111.5 -183.5t108.5 -178.5h-162l-327 542v-1q-10 16 -19.5 33.5t-18.5 35.5 q-10 -19 -20 -36.5t-21 -32.5v1q-82 -134 -166 -271t-166 -271h-162z" />
<glyph unicode="Y" horiz-adv-x="1042" d="M-3 1434h152l330 -683q6 -12 13.5 -28.5t15.5 -36.5l15 30q8 16 16 33q41 82 85 169t88.5 174t88.5 173.5t85 168.5h147l-463 -889v-545h-134v543q-53 108 -108.5 220t-111 225.5t-111 225.5t-108.5 220z" />
<glyph unicode="Z" horiz-adv-x="1064" d="M8 0v55l828 1252h-761v127h965v-52l-831 -1256h818v-126h-1019z" />
<glyph unicode="[" horiz-adv-x="390" d="M53 -314v1733h344v-120h-217v-1493h217v-120h-344z" />
<glyph unicode="\" horiz-adv-x="797" d="M-18 1419h135l683 -1648h-130z" />
<glyph unicode="]" horiz-adv-x="393" d="M-14 -194h216v1493h-216v120h344v-1733h-344v120z" />
<glyph unicode="^" horiz-adv-x="861" d="M0 676l391 766h63l390 -766h-136l-285 569q-71 -141 -144.5 -285t-142.5 -284h-136z" />
<glyph unicode="_" horiz-adv-x="993" d="M58 -133h857v-125h-857v125z" />
<glyph unicode="`" horiz-adv-x="359" d="M-27 1498h149l253 -355h-134z" />
<glyph unicode="a" horiz-adv-x="875" d="M34 275q8 83 43 145.5t88 104.5t120.5 63.5t140.5 21.5q63 0 128 -17t125 -50q0 29 -0.5 59.5t-0.5 59.5q-7 130 -61.5 198.5t-157.5 68.5q-170 -2 -305 -125l-81 85q152 159 392 159h3q163 0 250.5 -99t87.5 -289v-660h-127v109q-17 -18 -45 -39t-56 -37 q-105 -57 -221 -57q-149 0 -235 85q-88 84 -88 214zM166 277q0 -80 52 -131q54 -51 149 -51q133 0 218 68v-1q40 33 63.5 60.5t28.5 50.5v148q-62 40 -123.5 58t-118.5 18q-56 0 -105.5 -16t-86 -45t-57 -69.5t-20.5 -89.5z" />
<glyph unicode="b" horiz-adv-x="979" d="M59 1498h127v-637q72 89 160.5 134t191.5 53q198 0 309 -137h-1q111 -135 111 -363q0 -256 -126 -413q-129 -159 -333 -159q-203 0 -312 156v-133l-126 7zM186 283q29 -38 60.5 -72t69.5 -59.5t84.5 -41t104.5 -15.5q70 0 128.5 32t101.5 90q44 62 67.5 144.5t23.5 184.5 q0 176 -83 282q-40 49 -94.5 74t-120.5 27q-203 -17 -342 -199v-447z" />
<glyph unicode="c" horiz-adv-x="882" d="M33 495q0 118 38.5 220t105.5 177q72 75 165.5 115.5t204.5 40.5h6q150 0 290 -92l-72 -98q-116 71 -237 71q-163 0 -267 -119q-103 -119 -103 -310q0 -185 94 -295q93 -110 246 -110q142 0 262 87l70 -101q-91 -52 -174.5 -78.5t-161.5 -26.5q-210 0 -339 144 q-128 146 -128 375z" />
<glyph unicode="d" horiz-adv-x="979" d="M4 548q0 231 110 363h-1q110 137 309 137q76 0 132.5 -17t98.5 -43.5t71.5 -59t50.5 -62.5v632h127l-1 -1492l-126 -7v133q-111 -156 -312 -156q-204 0 -333 159q-126 156 -126 413zM135 546q0 -102 23 -184.5t67 -144.5q44 -58 102.5 -90t127.5 -32q58 0 104.5 15.5 t84.5 41t70 59.5t61 72v447q-68 89 -156 138.5t-187 60.5q-65 -2 -120 -27t-94 -74q-83 -106 -83 -282z" />
<glyph unicode="e" horiz-adv-x="951" d="M38 518q0 110 32 204.5t95 170.5q64 72 149 113.5t185 41.5q193 0 297 -137q102 -132 102 -363v-59h-729q4 -87 25 -161.5t63 -124.5q90 -108 244 -108q158 0 300 115l61 -101q-185 -133 -380 -133q-200 0 -322 143q-61 72 -91.5 170.5t-30.5 228.5zM175 608h591 q-9 155 -79 238t-192 83q-66 0 -120 -22.5t-97 -65.5q-39 -42 -64.5 -100t-38.5 -133z" />
<glyph unicode="f" horiz-adv-x="635" d="M1 905v119h177v152q0 164 84 250q85 87 210 87q33 0 74.5 -11.5t90.5 -36.5l-54 -110q-53 39 -115 39q-163 0 -163 -226v-144h261v-119h-261v-905h-127v905h-177z" />
<glyph unicode="g" horiz-adv-x="996" d="M26 495q0 242 129 397q130 156 342 156q96 0 171 -35t129 -102v113h127v-932q0 -143 -31 -248t-95 -172q-126 -135 -391 -135q-148 0 -325 88l86 103q106 -72 240 -72q389 0 389 412v66q-122 -158 -339 -158q-191 0 -312 139q-120 138 -120 380zM157 502q0 -194 87 -302 h-1q87 -105 226 -105q210 2 328 196v459q-133 179 -298 179q-153 0 -246 -116q-96 -119 -96 -311z" />
<glyph unicode="h" horiz-adv-x="880" d="M58 0v1498h127v-608q121 158 323 158q170 0 258.5 -107t88.5 -311v-630h-127v610q0 166 -59 242.5t-184 76.5h-3q-170 0 -297 -222v-707h-127z" />
<glyph unicode="i" horiz-adv-x="204" d="M6 1328q0 20 8 37t20.5 29t29 18.5t34.5 6.5q38 0 66 -24.5t28 -66.5q0 -20 -7.5 -37t-20 -29.5t-30 -20t-36.5 -7.5q-37 0 -64.5 26t-27.5 68zM36 0v1024h127v-1024h-127z" />
<glyph unicode="j" horiz-adv-x="580" d="M-14 -284q51 -29 93 -44.5t76 -15.5q231 0 231 375v993h127v-977q0 -510 -367 -510q-37 0 -76.5 10.5t-83.5 30.5v138zM356 1328q0 20 8 37t21 29t29.5 18.5t34.5 6.5q38 0 66 -24.5t28 -66.5q0 -20 -7.5 -37t-20 -29.5t-30 -20t-36.5 -7.5q-37 0 -65 26t-28 68z" />
<glyph unicode="k" horiz-adv-x="792" d="M57 0v1498h127v-917q106 110 212.5 222t212.5 221h167l-486 -497l129 -129q67 -67 134.5 -135t134 -135t127.5 -128h-182l-449 463v-463h-127z" />
<glyph unicode="l" horiz-adv-x="431" d="M52 262v1236h127v-1225q0 -92 28 -133t94 -41q50 0 138 49v-128q-42 -20 -79.5 -29.5t-69.5 -9.5q-238 0 -238 281z" />
<glyph unicode="m" horiz-adv-x="1515" d="M63 0v1024h127v-123q60 73 132 111q70 37 150 36h4q57 0 107 -17t90 -49q30 -26 55 -58t40 -70q23 42 51.5 73.5t65.5 57.5q93 63 198 63q343 0 343 -420v-628h-127v612q0 179 -55 249q-50 68 -168 68q-107 0 -187 -94q-80 -92 -80 -238v-597h-127v619q0 309 -229 310 q-85 -9 -151 -54.5t-112 -131.5v-743h-127z" />
<glyph unicode="n" horiz-adv-x="924" d="M58 0v1024h127v-124q125 148 318 148h3q169 0 259 -111.5t90 -317.5v-619h-127v593q0 167 -60 250.5t-176 85.5q-102 -11 -182 -56.5t-125 -129.5v-743h-127z" />
<glyph unicode="o" horiz-adv-x="1072" d="M40 506q0 128 33.5 226.5t102.5 171.5q136 144 360 144q219 0 348 -144q127 -143 127 -394q0 -237 -130 -385q-130 -149 -355 -149q-112 0 -201 36.5t-155 111.5q-130 148 -130 382zM171 504q0 -186 96 -298q97 -111 262 -111q168 0 260 109q91 109 91 308q0 203 -90 310 t-257 107q-165 0 -264 -111q-98 -110 -98 -314z" />
<glyph unicode="p" horiz-adv-x="979" d="M59 -453v1477h127v-153q61 87 146 129.5t206 47.5q198 0 309 -137h-1q111 -135 111 -363q0 -125 -32.5 -229.5t-92.5 -182.5q-63 -76 -148 -118t-186 -42h-9q-96 0 -169 40q-76 42 -134 117v-586h-127zM186 297q62 -99 141.5 -150t177.5 -52q70 0 128.5 32t101.5 90 q44 62 67.5 144.5t23.5 184.5q0 176 -83 282q-81 101 -214 101q-51 -5 -101 -18t-95 -37t-83 -60t-64 -88v-429z" />
<glyph unicode="q" horiz-adv-x="980" d="M5 548q0 231 110 363h-1q110 137 309 137q121 -5 206.5 -47.5t146.5 -129.5v153h127v-1477h-127v586q-58 -75 -134 -117q-74 -40 -170 -40h-9q-207 1 -334 160q-124 157 -124 412zM136 546q0 -102 23 -184.5t67 -144.5q44 -58 102.5 -90t127.5 -32q98 1 178 52t142 150 v429q-27 53 -64.5 89.5t-82 60t-95 36t-102.5 17.5q-133 0 -214 -101q-82 -106 -82 -282z" />
<glyph unicode="r" horiz-adv-x="555" d="M55 0v1024h125v-115q56 69 122 103q62 32 132 31h8q29 0 58 -5.5t58 -17.5v-145q-70 50 -123 50h-7q-156 0 -248 -181v-744h-125z" />
<glyph unicode="s" horiz-adv-x="738" d="M28 86l57 114q32 -28 66 -48.5t69 -32.5q34 -11 63 -17.5t53 -6.5q213 0 213 171q0 29 -11.5 53.5t-36.5 47t-64 44t-93 44.5q-145 64 -206 132q-62 71 -62 173q0 130 98 210q97 78 240 78q132 0 275 -86l-48 -114q-125 81 -237 81q-89 0 -144 -46q-53 -45 -53 -117 q0 -61 33 -102q19 -20 59 -44.5t100 -50.5q78 -35 132.5 -69t84.5 -64q64 -66 64 -170q0 -127 -96 -209q-93 -81 -255 -81q-75 0 -149.5 27.5t-151.5 82.5z" />
<glyph unicode="t" horiz-adv-x="570" d="M-2 905v119h177v286h127v-286h260v-119h-260v-632q0 -92 27.5 -133t94.5 -41q49 0 103 33l39 -109q-45 -22 -83 -32t-71 -10q-237 0 -237 281v643h-177z" />
<glyph unicode="u" horiz-adv-x="923" d="M50 435v589h128v-567q0 -190 61.5 -276t192.5 -86h3q87 -1 157 49q72 50 129 149v731h127v-1024h-127v138q-127 -162 -286 -162h-17h1q-369 0 -369 459z" />
<glyph unicode="v" horiz-adv-x="938" d="M6 1024h140l299 -797q4 -9 6.5 -18.5t5.5 -18.5q3 9 6.5 17.5t6.5 16.5v-1l308 801h138l-407 -1024h-108z" />
<glyph unicode="w" horiz-adv-x="1402" d="M30 1024h139l233 -801q0 -3 1 -5q0 2 2 6l254 800h89l228 -801v-1q1 1 1 2l237 800h132l-317 -1024h-112l-219 756q-1 2 -1 3t-1 3v-4l-246 -758h-111z" />
<glyph unicode="x" horiz-adv-x="904" d="M26 0l341 500q-39 62 -81.5 128.5t-86 134t-86 133.5t-81.5 128h150l225 -362q11 -20 20.5 -34.5t16.5 -25.5l34 55l235 367h151l-348 -523q80 -120 167.5 -250.5t167.5 -250.5h-160l-251 401l-21 -31q2 1 0 -2.5t-4 -5.5q-3 -5 -6 -9.5t-7 -9.5l1 1q-54 -85 -111.5 -172 t-111.5 -172h-154z" />
<glyph unicode="y" horiz-adv-x="950" d="M27 1024h140l301 -813l8 -25q2 4 3 8t3 8l322 822h139l-491 -1214q-28 -69 -58.5 -120.5t-67 -85t-81 -50.5t-99.5 -17q-24 0 -49.5 5.5t-51.5 15.5l41 125q25 -19 64 -19q106 0 169 152l89 210q-94 244 -190.5 499t-190.5 499z" />
<glyph unicode="z" horiz-adv-x="895" d="M17 0v60l635 845h-588v119h796v-50l-641 -855h617v-119h-819z" />
<glyph unicode="{" horiz-adv-x="449" d="M-8 504v97q151 21 151 216v302q0 78 18 134t54 92t89 54t123 21v-120q-93 -4 -123 -47q-15 -23 -23 -62.5t-8 -99.5v-282q0 -196 -114 -259q114 -65 114 -271v-266q0 -115 31 -161q30 -43 123 -47v-120q-70 3 -123 21t-89 54t-54 91.5t-18 134.5v285q0 212 -151 233z" />
<glyph unicode="|" horiz-adv-x="243" d="M51 -463v2010h130v-2010h-130z" />
<glyph unicode="}" horiz-adv-x="448" d="M13 -195q89 4 119 44q34 41 34 164v266q0 208 116 271q-116 63 -116 259v282q0 123 -34 164q-32 41 -119 45v120q70 -3 123.5 -20.5t89.5 -53.5t54 -92t18 -135v-302q0 -195 149 -216v-97q-149 -21 -149 -233v-285q0 -79 -18 -135t-54 -92t-89.5 -53.5t-123.5 -20.5v120z " />
<glyph unicode="~" horiz-adv-x="956" d="M44 461q3 63 21.5 113.5t50 85.5t75 53.5t97.5 18.5q48 0 99 -21t100 -59q33 -26 57.5 -43.5t40.5 -25.5q31 -14 68 -14q110 0 129 154h111q-8 -129 -72.5 -200.5t-171.5 -71.5q-98 0 -205 85q-98 77 -158 77q-117 0 -129 -152h-113z" />
<glyph unicode="&#xa1;" horiz-adv-x="214" d="M5 944q0 41 28.5 69t69.5 28t68.5 -28t27.5 -69q0 -43 -27.5 -69.5t-68.5 -26.5t-69.5 26.5t-28.5 69.5zM35 -393l9 1031h122l9 -1031h-140z" />
<glyph unicode="&#xa2;" horiz-adv-x="814" d="M12 652q0 215 113 362q56 75 129 119.5t166 62.5v195h127v-186q55 -3 117 -20.5t129 -47.5l-38 -126q-106 65 -208 74v-828q56 7 105 28.5t99 59.5l36 -124q-61 -35 -121 -55.5t-119 -27.5v-193h-127v193q-92 10 -164 49t-129 107q-115 140 -115 358zM142 658 q0 -81 21.5 -152.5t58.5 -125.5q35 -45 87 -78t111 -44v817q-124 -30 -198 -136v1q-80 -115 -80 -282z" />
<glyph unicode="&#xa3;" horiz-adv-x="905" d="M14 0v115q239 99 239 338v184h-219v125h219v260q0 186 100 303q102 117 268 117q96 0 194 -40v-135q-110 55 -198 55q-112 0 -174.5 -79t-62.5 -232v-249h296v-125h-296v-151q0 -131 -36.5 -220.5t-119.5 -146.5h664v-119h-874z" />
<glyph unicode="&#xa4;" horiz-adv-x="997" d="M42 360l133 129q-74 110 -74 228q0 134 74 230q-31 30 -67.5 65t-65.5 64l85 86l132 -132q108 75 230 75q65 0 122 -19t108 -55q31 31 67 66t65 65l85 -86l-134 -130q75 -96 75 -229q0 -125 -74 -228q32 -31 68 -65.5t66 -62.5l-86 -87l-129 131q-101 -76 -233 -76 t-231 76l-131 -131zM220 719q0 -108 80 -190q81 -81 189 -81t188 80t80 191q0 113 -81 190q-82 77 -185 77q-116 0 -194 -79q-77 -80 -77 -188z" />
<glyph unicode="&#xa5;" horiz-adv-x="960" d="M0 1419h143l301 -561h-1q9 -17 16 -30t13 -24q8 18 15 33t15 26l-1 -1q75 137 152 278.5t152 278.5h138l-369 -664h318v-118h-359v-198h359v-119h-359v-320h-127v320h-358v119h358v198h-358v118h315q-44 80 -89.5 164t-92 168.5t-92.5 168t-89 163.5z" />
<glyph unicode="&#xa6;" horiz-adv-x="221" d="M51 396h130v-859h-130v859zM51 688v859h130v-859h-130z" />
<glyph unicode="&#xa7;" horiz-adv-x="676" d="M25 729q0 161 139 248q-48 41 -75 93.5t-27 115.5q0 130 85 209q86 78 232 78q55 0 106 -10t101 -32v-138q-53 31 -105.5 46t-103.5 15q-184 0 -184 -162q0 -67 47 -112q27 -26 76.5 -54t123.5 -61q206 -95 206 -286q0 -155 -137 -272q81 -73 81 -192t-93 -200 q-91 -79 -235 -79q-106 0 -228 55v140q139 -75 230 -75q96 0 145 43t49 114q0 45 -27 87q-13 21 -45.5 44t-81.5 47q-86 42 -143.5 82t-83.5 78q-52 77 -52 178zM156 734q0 -87 51 -136q50 -50 199 -117q55 42 83 85q27 43 27 113q0 68 -42 113q-44 47 -199 117 q-119 -57 -119 -175zM267 912h16l-4 -2q-2 -1 -4 -1q-4 0 -8 3z" />
<glyph unicode="&#xa8;" horiz-adv-x="608" d="M49 1232q0 19 7.5 35t19.5 27t27.5 17.5t32.5 6.5q18 0 34 -6.5t29 -18t20.5 -27t7.5 -34.5q0 -38 -25.5 -63.5t-63.5 -25.5q-35 0 -62 24t-27 65zM370 1232q0 19 7.5 35t19.5 27t27.5 17.5t31.5 6.5q18 0 34.5 -6.5t29.5 -18t21 -27t8 -34.5q0 -38 -26.5 -63.5 t-64.5 -25.5q-17 0 -32.5 6.5t-28 18t-20 28t-7.5 36.5z" />
<glyph unicode="&#xa9;" horiz-adv-x="1591" d="M43 707q0 307 216 520q220 215 520 215q302 0 522 -215q217 -214 217 -518t-216 -518q-215 -215 -521 -215t-523 214q-215 215 -215 517zM158 707q0 -125 47.5 -236t134.5 -202q91 -89 201 -135t238 -46q260 0 441 182q183 184 183 437q0 256 -184 440q-183 183 -440 183 q-255 0 -438 -183t-183 -440zM312 683q0 246 146 389q145 145 366 145q131 0 280 -74l-50 -106q-116 63 -245 63q-157 0 -263 -108q-107 -107 -107 -288q0 -177 111 -285q109 -108 269 -108q119 0 238 72l52 -100q-169 -91 -300 -91q-209 0 -353 141t-144 350z" />
<glyph unicode="&#xaa;" horiz-adv-x="685" d="M33 888q0 33 6.5 68.5t21 69.5t37.5 64.5t54.5 53.5t72 36.5t91.5 13.5q38 0 83 -9t96 -29q-12 166 -139 166q-124 0 -264 -107v141q137 82 271 82q258 0 258 -283v-465h-125v93q-45 -52 -104.5 -80.5t-124.5 -28.5q-109 0 -171 62q-63 63 -63 152zM160 891q0 -46 32 -74 t92 -28q84 0 212 134v139q-38 20 -77 30.5t-73 10.5q-37 0 -69.5 -12.5t-57.5 -38.5t-40.5 -66t-18.5 -95z" />
<glyph unicode="&#xab;" horiz-adv-x="794" d="M11 536l281 350h159l-287 -350q33 -40 70 -84l74 -88q37 -44 73.5 -87.5t69.5 -83.5h-158zM316 536l282 350h160l-287 -350q33 -39 69.5 -83.5t74 -89.5t73.5 -88.5t68 -81.5h-157z" />
<glyph unicode="&#xac;" horiz-adv-x="982" d="M-8 534v119h912v-512h-122v393h-790z" />
<glyph unicode="&#xad;" horiz-adv-x="690" d="M56 534v125h564v-125h-564z" />
<glyph unicode="&#xae;" horiz-adv-x="1591" d="M43 707q0 307 216 520q220 215 520 215q302 0 522 -215q217 -214 217 -518t-216 -518q-215 -215 -521 -215t-523 214q-215 215 -215 517zM158 707q0 -125 47.5 -236t134.5 -202q91 -89 201 -135t238 -46q260 0 441 182q183 184 183 437q0 256 -184 440q-183 183 -440 183 q-255 0 -438 -183t-183 -440zM498 233v968h273q160 0 249 -72l-1 1q91 -73 91 -193q0 -216 -230 -271q33 -52 69 -107t72 -110.5t71.5 -110t67.5 -105.5h-147l-252 412h-136v-412h-127zM625 752h168q42 0 76.5 12t59.5 35q51 49 51 123q0 172 -211 172h-144v-342z" />
<glyph unicode="&#xaf;" horiz-adv-x="850" d="M58 1651v125h857v-125h-857z" />
<glyph unicode="&#xb0;" horiz-adv-x="602" d="M34 1159q0 107 76 183q77 77 183 77q109 0 186 -77q78 -75 78 -183t-77 -187q-77 -77 -183 -77q-109 0 -185 78q-78 78 -78 186zM151 1159q0 -63 42 -108q41 -44 100 -44q61 0 101 44q44 47 44 108q0 63 -41 106q-42 42 -100 42q-61 0 -104 -44q-42 -44 -42 -104z" />
<glyph unicode="&#xb1;" horiz-adv-x="919" d="M-5 0v119h912v-119h-912zM-5 609v120h397v395h119v-395h396v-120h-396v-396h-119v396h-397z" />
<glyph unicode="&#xb2;" horiz-adv-x="674" d="M38 862v123l235 231q57 55 91 94.5t52.5 70.5t24 57t5.5 54q0 128 -133 128q-97 0 -232 -117v151q61 42 119 63t119 21q59 0 106 -17t80 -47.5t50.5 -74t17.5 -95.5q0 -39 -9.5 -77.5t-34 -81.5t-66.5 -93.5t-107 -114.5l-156 -150h375v-125h-537z" />
<glyph unicode="&#xb3;" horiz-adv-x="674" d="M35 890v140q120 -77 207 -77q78 0 122 40t44 107q0 142 -207 142h-87v116h78q188 0 188 146q0 113 -128 113q-62 0 -185 -64v131q54 26 104.5 38t97.5 12q54 0 97.5 -16t74 -44.5t47 -69t16.5 -88.5q0 -145 -112 -206q67 -28 102 -83.5t35 -126.5q0 -56 -19.5 -103.5 t-56.5 -83t-91 -55.5t-122 -20q-110 0 -205 52z" />
<glyph unicode="&#xb4;" horiz-adv-x="359" d="M-23 1143l254 355h148l-268 -355h-134z" />
<glyph unicode="&#xb5;" horiz-adv-x="887" d="M58 -376v1400h127v-567q0 -96 15.5 -164.5t47 -112.5t79.5 -64.5t113 -20.5q130 0 208 95q80 95 80 257v577h127v-1024h-127v133q-106 -157 -303 -157q-152 0 -240 93v-445h-127z" />
<glyph unicode="&#xb6;" horiz-adv-x="823" d="M19 1142q0 126 78 201q79 76 188 76h495v-122h-126v-1297h-121v1297h-152v-1297h-122v869q-51 3 -91 22.5t-75 56.5q-74 78 -74 194z" />
<glyph unicode="&#xb7;" horiz-adv-x="262" d="M32 700q0 41 28 68t69 27q40 0 69 -27t29 -68q0 -20 -8 -38t-21.5 -31.5t-31 -21t-37.5 -7.5q-41 0 -69 28.5t-28 69.5z" />
<glyph unicode="&#xb8;" horiz-adv-x="415" d="M41 -301q72 -9 102 -9q135 0 135 69q0 64 -121 64q-14 0 -34 -1.5t-47 -5.5v222h108v-112q217 -6 217 -161q0 -183 -264 -183q-35 0 -96 6v111z" />
<glyph unicode="&#xb9;" horiz-adv-x="674" d="M22 1522v126l322 102v-771h183v-117h-492v117h188v612q-48 -17 -103 -35.5t-98 -33.5z" />
<glyph unicode="&#xba;" horiz-adv-x="798" d="M37 1052q0 180 100 283q103 103 260 103q162 0 255 -104q94 -103 94 -280q0 -165 -96 -273q-96 -111 -259 -111q-80 0 -144.5 26.5t-112.5 82.5q-97 109 -97 273zM166 1050q0 -122 63 -192q62 -71 164 -71q106 0 164 71t58 198q0 125 -57.5 195.5t-162.5 70.5 q-104 0 -166 -71q-63 -74 -63 -201z" />
<glyph unicode="&#xbb;" horiz-adv-x="797" d="M21 193l291 351q-34 40 -71 84t-75 88.5t-75 87.5t-70 82h161l282 -342l-279 -351h-164zM328 886h159l284 -343l-283 -350h-159l288 351q-33 40 -70.5 84t-75 88.5t-74 87.5t-69.5 82z" />
<glyph unicode="&#xbc;" horiz-adv-x="1437" d="M34 1222v126l322 102v-888h-121v729q-48 -17 -103 -35.5t-98 -33.5zM228 0l853 1419h136l-850 -1419h-139zM773 211v87l379 559h116v-533h106v-113h-106v-211h-117v211h-378zM925 324h226v337q-3 -5 -5.5 -8t-4.5 -5q-54 -81 -107 -161t-109 -163z" />
<glyph unicode="&#xbd;" horiz-adv-x="1510" d="M34 1222v126l323 102v-888h-121v729q-48 -17 -103 -35.5t-99 -33.5zM231 0l852 1419h137l-851 -1419h-138zM911 0v123l237 231q56 55 90 94.5t52 70.5t23.5 57t5.5 54q0 128 -133 128q-100 0 -232 -117v152q122 83 238 83q59 0 106 -17t80 -48t50.5 -74t17.5 -95 q0 -38 -9.5 -76t-33.5 -81.5t-66 -94t-107 -114.5l-156 -151h374v-125h-537z" />
<glyph unicode="&#xbe;" horiz-adv-x="1463" d="M31 590v140q120 -77 207 -77q78 0 121.5 40t43.5 107q0 142 -206 142h-87v116h78q188 0 188 146q0 113 -128 113q-62 0 -185 -64v131q54 26 104.5 38t97.5 12q54 0 97.5 -16t74 -44.5t47 -69t16.5 -88.5q0 -145 -112 -206q67 -28 102 -83.5t35 -126.5q0 -56 -19.5 -103.5 t-56.5 -83t-91 -55.5t-122 -20q-110 0 -205 52zM251 0l853 1419h137l-851 -1419h-139zM796 211v87l379 559h117v-533h106v-113h-106v-211h-118v211h-378zM948 324h226v337q-3 -5 -5 -8t-4 -5q-54 -81 -107.5 -161t-109.5 -163z" />
<glyph unicode="&#xbf;" horiz-adv-x="720" d="M3 -95q0 58 15.5 105t41 87t58.5 75t67 68q49 46 80 78t49 57.5t25 49.5t7 55q0 42 -10 85t-20 76h117q6 -15 11.5 -34t9.5 -40.5t6.5 -43.5t2.5 -42q0 -47 -13 -86.5t-36 -74.5t-54 -67t-68 -64q-29 -27 -57.5 -56t-51 -62.5t-36 -72.5t-13.5 -84q0 -48 16.5 -86.5 t45.5 -65.5t70 -41t91 -14q87 0 159 30q71 30 127 90l75 -95q-53 -48 -100.5 -79t-88.5 -45q-38 -12 -82 -19t-91 -7q-75 0 -139.5 21.5t-112 63t-74.5 101.5t-27 137zM288 944q0 20 7.5 38t20.5 31t31 20.5t39 7.5q41 0 68 -28t27 -69q0 -43 -27 -69.5t-68 -26.5 q-42 0 -70 26.5t-28 69.5z" />
<glyph unicode="&#xc0;" d="M7 0l541 1434h119l535 -1434h-150l-159 434h-578q-39 -106 -80.5 -217.5t-79.5 -216.5h-148zM363 561h482l-226 619q-5 12 -8 24.5t-7 24.5q-9 -29 -16 -48v1q-29 -81 -57 -157.5t-55.5 -153t-55.5 -153t-57 -157.5zM412 1908h149l253 -355h-134z" />
<glyph unicode="&#xc1;" d="M7 0l541 1434h119l535 -1434h-150l-159 434h-578q-39 -106 -80.5 -217.5t-79.5 -216.5h-148zM363 561h482l-226 619q-5 12 -8 24.5t-7 24.5q-9 -29 -16 -48v1q-29 -81 -57 -157.5t-55.5 -153t-55.5 -153t-57 -157.5zM412 1553l254 355h148l-268 -355h-134z" />
<glyph unicode="&#xc2;" d="M7 0l541 1434h119l535 -1434h-150l-159 434h-578q-39 -106 -80.5 -217.5t-79.5 -216.5h-148zM344 1553l238 362h65l235 -362h-129l-140 215q-34 -50 -72.5 -108t-70.5 -107h-126zM363 561h482l-226 619q-5 12 -8 24.5t-7 24.5q-9 -29 -16 -48v1q-29 -81 -57 -157.5 t-55.5 -153t-55.5 -153t-57 -157.5z" />
<glyph unicode="&#xc3;" d="M7 0l541 1434h119l535 -1434h-150l-159 434h-578q-39 -106 -80.5 -217.5t-79.5 -216.5h-148zM294 1553q0 123 50 185q26 32 60.5 49.5t77.5 17.5q75 0 167 -75q60 -52 100 -52q30 0 51.5 35.5t21.5 104.5h110q0 -59 -13.5 -105.5t-38.5 -79.5t-60.5 -50.5t-79.5 -17.5 q-35 0 -75 20.5t-83 57.5q-54 48 -102 48q-79 0 -79 -138h-107zM363 561h482l-226 619q-5 12 -8 24.5t-7 24.5q-9 -29 -16 -48v1q-29 -81 -57 -157.5t-55.5 -153t-55.5 -153t-57 -157.5z" />
<glyph unicode="&#xc4;" d="M7 0l541 1434h119l535 -1434h-150l-159 434h-578q-39 -106 -80.5 -217.5t-79.5 -216.5h-148zM363 561h482l-226 619q-5 12 -8 24.5t-7 24.5q-9 -29 -16 -48v1q-29 -81 -57 -157.5t-55.5 -153t-55.5 -153t-57 -157.5zM363 1642q0 19 7.5 35t19.5 27t27.5 17.5t32.5 6.5 q18 0 34 -6.5t29 -18t20.5 -27t7.5 -34.5q0 -38 -25.5 -63.5t-63.5 -25.5q-35 0 -62 24t-27 65zM684 1642q0 19 7.5 35t19.5 27t27.5 17.5t31.5 6.5q18 0 34.5 -6.5t29.5 -18t21 -27t8 -34.5q0 -38 -26.5 -63.5t-64.5 -25.5q-17 0 -32.5 6.5t-28 18t-20 28t-7.5 36.5z" />
<glyph unicode="&#xc5;" horiz-adv-x="1229" d="M8 0l508 1344q-124 49 -124 183q0 87 64 144q64 56 151 56q45 0 83 -14.5t68 -40.5q29 -26 46.5 -63.5t17.5 -81.5q0 -130 -122 -181q124 -332 251.5 -673t251.5 -673h-150l-159 434h-578q-39 -106 -80.5 -217.5t-79.5 -216.5h-148zM364 561h482l-226 619q-5 12 -8 24.5 t-7 24.5q-9 -29 -16 -48v1q-29 -81 -57 -157.5t-55.5 -153t-55.5 -153t-57 -157.5zM503 1527q0 -42 29.5 -67.5t74.5 -25.5q47 0 76.5 25.5t29.5 67.5q0 47 -30.5 71t-75.5 24q-48 0 -76 -25.5t-28 -69.5zM587 1289l18 -15l16 14q-5 -17 -8 -31.5t-8 -27.5q-1 3 -1 5.5 t-1 4.5v-2q-2 5 -4 11.5t-4 15.5v-2q-2 8 -4 14t-4 13z" />
<glyph unicode="&#xc7;" horiz-adv-x="1193" d="M39 689q0 348 202 557q201 211 511 211q229 -4 406 -155l-106 -96q-68 63 -143.5 94t-158.5 31q-253 0 -413 -172q-159 -172 -159 -460q0 -277 151 -437h-1q151 -159 386 -159q83 0 158.5 31t143.5 94l106 -96q-179 -152 -416 -156q-294 0 -482 197q-185 200 -185 516z M416 -301q72 -9 102 -9q135 0 135 69q0 64 -121 64q-14 0 -34 -1.5t-47 -5.5v222h108v-112q217 -6 217 -161q0 -183 -264 -183q-35 0 -96 6v111z" />
<glyph unicode="&#xc8;" horiz-adv-x="1024" d="M63 0v1434h691v-127h-556v-521h516v-126h-516v-534h588v-126h-723zM205 1846h149l253 -355h-134z" />
<glyph unicode="&#xc9;" horiz-adv-x="1024" d="M63 0v1434h691v-127h-556v-521h516v-126h-516v-534h588v-126h-723zM256 1488l254 355h148l-268 -355h-134z" />
<glyph unicode="&#xca;" horiz-adv-x="1024" d="M63 0v1434h691v-127h-556v-521h516v-126h-516v-534h588v-126h-723zM166 1492l238 362h65l235 -362h-129l-140 215q-34 -50 -72.5 -108t-70.5 -107h-126z" />
<glyph unicode="&#xcb;" horiz-adv-x="1024" d="M63 0v1434h691v-127h-556v-521h516v-126h-516v-534h588v-126h-723zM188 1580q0 19 7.5 35t19.5 27t27.5 17.5t32.5 6.5q18 0 34 -6.5t29 -18t20.5 -27t7.5 -34.5q0 -38 -25.5 -63.5t-63.5 -25.5q-35 0 -62 24t-27 65zM509 1580q0 19 7.5 35t19.5 27t27.5 17.5t31.5 6.5 q18 0 34.5 -6.5t29.5 -18t21 -27t8 -34.5q0 -38 -26.5 -63.5t-64.5 -25.5q-17 0 -32.5 6.5t-28 18t-20 28t-7.5 36.5z" />
<glyph unicode="&#xcc;" horiz-adv-x="463" d="M-138 1846h149l253 -355h-134zM57 0v1434h135v-1434h-135z" />
<glyph unicode="&#xcd;" horiz-adv-x="463" d="M10 1491l254 355h148l-268 -355h-134zM57 0v1434h135v-1434h-135z" />
<glyph unicode="&#xce;" horiz-adv-x="463" d="M-142 1492l238 362h65l235 -362h-129l-140 215q-34 -50 -72.5 -108t-70.5 -107h-126zM57 0v1434h135v-1434h-135z" />
<glyph unicode="&#xcf;" horiz-adv-x="463" d="M-127 1580q0 19 7.5 35t19.5 27t27.5 17.5t32.5 6.5q18 0 34 -6.5t29 -18t20.5 -27t7.5 -34.5q0 -38 -25.5 -63.5t-63.5 -25.5q-35 0 -62 24t-27 65zM57 0v1434h135v-1434h-135zM194 1580q0 19 7.5 35t19.5 27t27.5 17.5t31.5 6.5q18 0 34.5 -6.5t29.5 -18t21 -27 t8 -34.5q0 -38 -26.5 -63.5t-64.5 -25.5q-17 0 -32.5 6.5t-28 18t-20 28t-7.5 36.5z" />
<glyph unicode="&#xd0;" horiz-adv-x="1331" d="M33 650v124h145v660h369q358 0 543.5 -177.5t185.5 -520.5q0 -161 -53 -296.5t-150 -237.5q-100 -100 -237.5 -151t-308.5 -51h-349v650h-145zM314 126h199q301 0 462 155q162 154 162 452q0 574 -605 574h-218v-533h392v-124h-392v-524z" />
<glyph unicode="&#xd1;" horiz-adv-x="1235" d="M62 0v1434h103l831 -1126q6 -8 12 -16.5t13 -19.5q-1 15 -1 28v24v1110h135v-1434h-97l-837 1135q-5 8 -11.5 16.5t-12.5 17.5v-1169h-135zM298 1553q0 123 50 185q26 32 60.5 49.5t77.5 17.5q75 0 167 -75q60 -52 100 -52q30 0 51.5 35.5t21.5 104.5h110 q0 -59 -13.5 -105.5t-38.5 -79.5t-60.5 -50.5t-79.5 -17.5q-35 0 -75 20.5t-83 57.5q-54 48 -102 48q-79 0 -79 -138h-107z" />
<glyph unicode="&#xd2;" horiz-adv-x="1447" d="M42 702q0 341 185 547q186 208 508 208q292 0 470 -200q180 -198 180 -519q0 -353 -183 -557q-187 -205 -494 -205q-304 0 -486 203q-180 201 -180 523zM180 713q0 -281 144 -446q141 -164 382 -164q125 0 224 42t171 120q70 81 108 197t38 261q0 290 -143 448 q-142 160 -386 160q-235 0 -386 -169q-152 -172 -152 -449zM522 1908h149l253 -355h-134z" />
<glyph unicode="&#xd3;" horiz-adv-x="1447" d="M42 702q0 341 185 547q186 208 508 208q292 0 470 -200q180 -198 180 -519q0 -353 -183 -557q-187 -205 -494 -205q-304 0 -486 203q-180 201 -180 523zM180 713q0 -281 144 -446q141 -164 382 -164q125 0 224 42t171 120q70 81 108 197t38 261q0 290 -143 448 q-142 160 -386 160q-235 0 -386 -169q-152 -172 -152 -449zM522 1553l254 355h148l-268 -355h-134z" />
<glyph unicode="&#xd4;" horiz-adv-x="1447" d="M42 702q0 341 185 547q186 208 508 208q292 0 470 -200q180 -198 180 -519q0 -353 -183 -557q-187 -205 -494 -205q-304 0 -486 203q-180 201 -180 523zM180 713q0 -281 144 -446q141 -164 382 -164q125 0 224 42t171 120q70 81 108 197t38 261q0 290 -143 448 q-142 160 -386 160q-235 0 -386 -169q-152 -172 -152 -449zM454 1553l238 362h65l235 -362h-129l-140 215q-34 -50 -72.5 -108t-70.5 -107h-126z" />
<glyph unicode="&#xd5;" horiz-adv-x="1447" d="M42 702q0 341 185 547q186 208 508 208q292 0 470 -200q180 -198 180 -519q0 -353 -183 -557q-187 -205 -494 -205q-304 0 -486 203q-180 201 -180 523zM180 713q0 -281 144 -446q141 -164 382 -164q125 0 224 42t171 120q70 81 108 197t38 261q0 290 -143 448 q-142 160 -386 160q-235 0 -386 -169q-152 -172 -152 -449zM404 1553q0 123 50 185q26 32 60.5 49.5t77.5 17.5q75 0 167 -75q60 -52 100 -52q30 0 51.5 35.5t21.5 104.5h110q0 -59 -13.5 -105.5t-38.5 -79.5t-60.5 -50.5t-79.5 -17.5q-35 0 -75 20.5t-83 57.5 q-54 48 -102 48q-79 0 -79 -138h-107z" />
<glyph unicode="&#xd6;" horiz-adv-x="1447" d="M42 702q0 341 185 547q186 208 508 208q292 0 470 -200q180 -198 180 -519q0 -353 -183 -557q-187 -205 -494 -205q-304 0 -486 203q-180 201 -180 523zM180 713q0 -281 144 -446q141 -164 382 -164q125 0 224 42t171 120q70 81 108 197t38 261q0 290 -143 448 q-142 160 -386 160q-235 0 -386 -169q-152 -172 -152 -449zM473 1642q0 19 7.5 35t19.5 27t27.5 17.5t32.5 6.5q18 0 34 -6.5t29 -18t20.5 -27t7.5 -34.5q0 -38 -25.5 -63.5t-63.5 -25.5q-35 0 -62 24t-27 65zM794 1642q0 19 7.5 35t19.5 27t27.5 17.5t31.5 6.5 q18 0 34.5 -6.5t29.5 -18t21 -27t8 -34.5q0 -38 -26.5 -63.5t-64.5 -25.5q-17 0 -32.5 6.5t-28 18t-20 28t-7.5 36.5z" />
<glyph unicode="&#xd7;" horiz-adv-x="911" d="M41 271l322 322l-161 161q-84 84 -161 162l85 84l321 -323q78 78 161 161.5t160 161.5l85 -84l-322 -323l322 -322l-85 -83l-321 323q-78 -78 -161 -161.5t-160 -161.5z" />
<glyph unicode="&#xd8;" horiz-adv-x="1470" d="M31 13l177 210q-144 196 -144 479q0 172 46.5 308t138.5 239q187 208 508 208q112 0 208.5 -30t176.5 -89q32 38 69 81.5t68 79.5l92 -76l-139 -165q88 -99 132 -229t44 -291q0 -354 -184 -557q-187 -205 -493 -205q-264 0 -443 158l-165 -195zM203 713q0 -115 24 -210.5 t72 -171.5l759 904q-132 96 -317 96q-236 0 -387 -169q-151 -170 -151 -449zM375 237q138 -134 354 -134q124 0 223.5 42t171.5 120q69 81 107.5 197t38.5 261q0 131 -33 240t-94 190z" />
<glyph unicode="&#xd9;" horiz-adv-x="1327" d="M51 556v878h135v-865q0 -466 375 -466q363 0 363 453v878h134v-857q0 -601 -515 -601q-492 0 -492 580zM332 1846h149l253 -355h-134z" />
<glyph unicode="&#xda;" horiz-adv-x="1327" d="M51 556v878h135v-865q0 -466 375 -466q363 0 363 453v878h134v-857q0 -601 -515 -601q-492 0 -492 580zM413 1490l254 355h148l-268 -355h-134z" />
<glyph unicode="&#xdb;" horiz-adv-x="1327" d="M51 556v878h135v-865q0 -466 375 -466q363 0 363 453v878h134v-857q0 -601 -515 -601q-492 0 -492 580zM326 1492l238 362h65l235 -362h-129l-140 215q-34 -50 -72.5 -108t-70.5 -107h-126z" />
<glyph unicode="&#xdc;" horiz-adv-x="1327" d="M51 556v878h135v-865q0 -466 375 -466q363 0 363 453v878h134v-857q0 -601 -515 -601q-492 0 -492 580zM334 1581q0 19 7.5 35t19.5 27t27.5 17.5t32.5 6.5q18 0 34 -6.5t29 -18t20.5 -27t7.5 -34.5q0 -38 -25.5 -63.5t-63.5 -25.5q-35 0 -62 24t-27 65zM655 1581 q0 19 7.5 35t19.5 27t27.5 17.5t31.5 6.5q18 0 34.5 -6.5t29.5 -18t21 -27t8 -34.5q0 -38 -26.5 -63.5t-64.5 -25.5q-17 0 -32.5 6.5t-28 18t-20 28t-7.5 36.5z" />
<glyph unicode="&#xdd;" horiz-adv-x="1106" d="M-3 1434h152l330 -683q6 -12 13.5 -28.5t15.5 -36.5l15 30q8 16 16 33q41 82 85 169t88.5 174t88.5 173.5t85 168.5h147l-463 -889v-545h-134v543q-53 108 -108.5 220t-111 225.5t-111 225.5t-108.5 220zM282 1522l254 355h148l-268 -355h-134z" />
<glyph unicode="&#xde;" horiz-adv-x="876" d="M56 0v1434h135v-232h221q462 0 462 -411q0 -207 -135 -336q-68 -63 -160 -94.5t-211 -31.5h-177v-329h-135zM191 455h179q178 0 272 84t94 239q0 298 -341 298h-204v-621z" />
<glyph unicode="&#xdf;" horiz-adv-x="920" d="M54 2v1091q0 197 102 308q101 112 274 112q149 0 245 -94q93 -95 93 -247q0 -246 -217 -360q138 -47 223 -148q49 -59 74 -126.5t25 -145.5q0 -181 -112 -299q-114 -117 -292 -117q-34 0 -73 6t-86 17v133q47 -18 85.5 -27.5t69.5 -9.5q128 0 201 79q76 79 76 212 q0 71 -27 130t-78 105t-125.5 77.5t-169.5 47.5v108q295 67 295 305q0 109 -57 172t-158 63q-115 0 -178 -82.5t-63 -231.5v-1078h-127z" />
<glyph unicode="&#xe0;" horiz-adv-x="1012" d="M34 275q8 83 43 145.5t88 104.5t120.5 63.5t140.5 21.5q63 0 128 -17t125 -50q0 29 -0.5 59.5t-0.5 59.5q-7 130 -61.5 198.5t-157.5 68.5q-170 -2 -305 -125l-81 85q153 160 395 159q163 0 250.5 -99t87.5 -289v-660h-127v109q-17 -18 -45 -39t-56 -37 q-105 -57 -221 -57q-149 0 -235 85q-88 84 -88 214zM166 277q0 -80 52 -131q54 -51 149 -51q133 0 218 68v-1q40 33 63.5 60.5t28.5 50.5v148q-62 40 -123.5 58t-118.5 18q-56 0 -105.5 -16t-86 -45t-57 -69.5t-20.5 -89.5zM168 1498h149l253 -355h-134z" />
<glyph unicode="&#xe1;" horiz-adv-x="1012" d="M34 275q8 83 43 145.5t88 104.5t120.5 63.5t140.5 21.5q63 0 128 -17t125 -50q0 29 -0.5 59.5t-0.5 59.5q-7 130 -61.5 198.5t-157.5 68.5q-170 -2 -305 -125l-81 85q153 160 395 159q163 0 250.5 -99t87.5 -289v-660h-127v109q-17 -18 -45 -39t-56 -37 q-105 -57 -221 -57q-149 0 -235 85q-88 84 -88 214zM166 277q0 -80 52 -131q54 -51 149 -51q133 0 218 68v-1q40 33 63.5 60.5t28.5 50.5v148q-62 40 -123.5 58t-118.5 18q-56 0 -105.5 -16t-86 -45t-57 -69.5t-20.5 -89.5zM202 1143l254 355h148l-268 -355h-134z" />
<glyph unicode="&#xe2;" horiz-adv-x="1012" d="M34 275q8 83 43 145.5t88 104.5t120.5 63.5t140.5 21.5q63 0 128 -17t125 -50q0 29 -0.5 59.5t-0.5 59.5q-7 130 -61.5 198.5t-157.5 68.5q-170 -2 -305 -125l-81 85q153 160 395 159q163 0 250.5 -99t87.5 -289v-660h-127v109q-17 -18 -45 -39t-56 -37 q-105 -57 -221 -57q-149 0 -235 85q-88 84 -88 214zM137 1143l238 362h65l235 -362h-129l-140 215q-34 -50 -72.5 -108t-70.5 -107h-126zM166 277q0 -80 52 -131q54 -51 149 -51q133 0 218 68v-1q40 33 63.5 60.5t28.5 50.5v148q-62 40 -123.5 58t-118.5 18 q-56 0 -105.5 -16t-86 -45t-57 -69.5t-20.5 -89.5z" />
<glyph unicode="&#xe3;" horiz-adv-x="1012" d="M34 275q8 83 43 145.5t88 104.5t120.5 63.5t140.5 21.5q63 0 128 -17t125 -50q0 29 -0.5 59.5t-0.5 59.5q-7 130 -61.5 198.5t-157.5 68.5q-170 -2 -305 -125l-81 85q153 160 395 159q163 0 250.5 -99t87.5 -289v-660h-127v109q-17 -18 -45 -39t-56 -37 q-105 -57 -221 -57q-149 0 -235 85q-88 84 -88 214zM166 277q0 -80 52 -131q54 -51 149 -51q133 0 218 68v-1q40 33 63.5 60.5t28.5 50.5v148q-62 40 -123.5 58t-118.5 18q-56 0 -105.5 -16t-86 -45t-57 -69.5t-20.5 -89.5zM200 1143q0 123 50 185q26 32 60.5 49.5 t77.5 17.5q75 0 167 -75q60 -52 100 -52q30 0 51.5 35.5t21.5 104.5h110q0 -59 -13.5 -105.5t-38.5 -79.5t-60.5 -50.5t-79.5 -17.5q-35 0 -75 20.5t-83 57.5q-54 48 -102 48q-79 0 -79 -138h-107z" />
<glyph unicode="&#xe4;" horiz-adv-x="1012" d="M34 275q8 83 43 145.5t88 104.5t120.5 63.5t140.5 21.5q63 0 128 -17t125 -50q0 29 -0.5 59.5t-0.5 59.5q-7 130 -61.5 198.5t-157.5 68.5q-170 -2 -305 -125l-81 85q153 160 395 159q163 0 250.5 -99t87.5 -289v-660h-127v109q-17 -18 -45 -39t-56 -37 q-105 -57 -221 -57q-149 0 -235 85q-88 84 -88 214zM139 1232q0 19 7.5 35t19.5 27t27.5 17.5t32.5 6.5q18 0 34 -6.5t29 -18t20.5 -27t7.5 -34.5q0 -38 -25.5 -63.5t-63.5 -25.5q-35 0 -62 24t-27 65zM166 277q0 -80 52 -131q54 -51 149 -51q133 0 218 68v-1 q40 33 63.5 60.5t28.5 50.5v148q-62 40 -123.5 58t-118.5 18q-56 0 -105.5 -16t-86 -45t-57 -69.5t-20.5 -89.5zM460 1232q0 19 7.5 35t19.5 27t27.5 17.5t31.5 6.5q18 0 34.5 -6.5t29.5 -18t21 -27t8 -34.5q0 -38 -26.5 -63.5t-64.5 -25.5q-17 0 -32.5 6.5t-28 18t-20 28 t-7.5 36.5z" />
<glyph unicode="&#xe5;" horiz-adv-x="849" d="M24 294q8 83 43 145.5t88 104.5t120.5 63.5t140.5 21.5q63 0 128 -17t125 -50q0 29 -0.5 59.5t-0.5 59.5q-7 130 -61.5 198.5t-157.5 68.5q-170 -2 -305 -125l-81 85q153 160 395 159q163 0 250.5 -99t87.5 -289v-660h-127v109q-17 -18 -45 -39t-56 -37 q-105 -57 -221 -57q-149 0 -235 85q-88 84 -88 214zM156 296q0 -80 52 -131q54 -51 149 -51q133 0 218 68v-1q40 33 63.5 60.5t28.5 50.5v148q-62 40 -123.5 58t-118.5 18q-56 0 -105.5 -16t-86 -45t-57 -69.5t-20.5 -89.5zM279 1340q0 87 61 141q30 29 68 42t84 13 q94 0 152 -54h-1q61 -55 61 -142q0 -86 -62 -142q-64 -55 -150 -55q-45 0 -82.5 13.5t-68.5 39.5q-62 55 -62 144zM389 1340q0 -43 29 -68.5t74 -25.5q46 0 75.5 26t29.5 68q0 45 -30.5 69t-74.5 24q-47 0 -75 -25.5t-28 -67.5z" />
<glyph unicode="&#xe7;" horiz-adv-x="909" d="M33 495q0 118 38.5 220t105.5 177q72 75 165.5 115.5t204.5 40.5q153 2 296 -92l-72 -98q-116 71 -237 71q-163 0 -267 -119q-103 -119 -103 -310q0 -185 94 -295q93 -110 246 -110q142 0 262 87l70 -101q-91 -52 -174.5 -78.5t-161.5 -26.5q-210 0 -339 144 q-128 146 -128 375zM387 -301q72 -9 102 -9q135 0 135 69q0 64 -121 64q-14 0 -34 -1.5t-47 -5.5v222h108v-112q217 -6 217 -161q0 -183 -264 -183q-35 0 -96 6v111z" />
<glyph unicode="&#xe8;" horiz-adv-x="1034" d="M38 518q0 110 32 204.5t95 170.5q64 72 149 113.5t185 41.5q193 0 297 -137q102 -132 102 -363v-59h-729q4 -87 25 -161.5t63 -124.5q90 -108 244 -108q158 0 300 115l61 -101q-185 -133 -380 -133q-200 0 -322 143q-61 72 -91.5 170.5t-30.5 228.5zM175 608h591 q-9 155 -79 238t-192 83q-66 0 -120 -22.5t-97 -65.5q-39 -42 -64.5 -100t-38.5 -133zM218 1498h149l253 -355h-134z" />
<glyph unicode="&#xe9;" horiz-adv-x="1034" d="M38 518q0 110 32 204.5t95 170.5q64 72 149 113.5t185 41.5q193 0 297 -137q102 -132 102 -363v-59h-729q4 -87 25 -161.5t63 -124.5q90 -108 244 -108q158 0 300 115l61 -101q-185 -133 -380 -133q-200 0 -322 143q-61 72 -91.5 170.5t-30.5 228.5zM175 608h591 q-9 155 -79 238t-192 83q-66 0 -120 -22.5t-97 -65.5q-39 -42 -64.5 -100t-38.5 -133zM239 1143l254 355h148l-268 -355h-134z" />
<glyph unicode="&#xea;" horiz-adv-x="1034" d="M38 518q0 110 32 204.5t95 170.5q64 72 149 113.5t185 41.5q193 0 297 -137q102 -132 102 -363v-59h-729q4 -87 25 -161.5t63 -124.5q90 -108 244 -108q158 0 300 115l61 -101q-185 -133 -380 -133q-200 0 -322 143q-61 72 -91.5 170.5t-30.5 228.5zM171 1143l238 362h65 l235 -362h-129l-140 215q-34 -50 -72.5 -108t-70.5 -107h-126zM175 608h591q-9 155 -79 238t-192 83q-66 0 -120 -22.5t-97 -65.5q-39 -42 -64.5 -100t-38.5 -133z" />
<glyph unicode="&#xeb;" horiz-adv-x="1034" d="M38 518q0 110 32 204.5t95 170.5q64 72 149 113.5t185 41.5q193 0 297 -137q102 -132 102 -363v-59h-729q4 -87 25 -161.5t63 -124.5q90 -108 244 -108q158 0 300 115l61 -101q-185 -133 -380 -133q-200 0 -322 143q-61 72 -91.5 170.5t-30.5 228.5zM175 608h591 q-9 155 -79 238t-192 83q-66 0 -120 -22.5t-97 -65.5q-39 -42 -64.5 -100t-38.5 -133zM176 1232q0 19 7.5 35t19.5 27t27.5 17.5t32.5 6.5q18 0 34 -6.5t29 -18t20.5 -27t7.5 -34.5q0 -38 -25.5 -63.5t-63.5 -25.5q-35 0 -62 24t-27 65zM497 1232q0 19 7.5 35t19.5 27 t27.5 17.5t31.5 6.5q18 0 34.5 -6.5t29.5 -18t21 -27t8 -34.5q0 -38 -26.5 -63.5t-64.5 -25.5q-17 0 -32.5 6.5t-28 18t-20 28t-7.5 36.5z" />
<glyph unicode="&#xec;" horiz-adv-x="380" d="M-31 1517h149l253 -355h-134zM202 0v1024h127v-1024h-127z" />
<glyph unicode="&#xed;" horiz-adv-x="364" d="M-135 1162l254 355h148l-268 -355h-134zM78 0v1024h127v-1024h-127z" />
<glyph unicode="&#xee;" horiz-adv-x="509" d="M-115 1162l238 362h65l235 -362h-129l-140 215q-34 -50 -72.5 -108t-70.5 -107h-126zM182 0v1024h127v-1024h-127z" />
<glyph unicode="&#xef;" horiz-adv-x="497" d="M-103 1251q0 19 7.5 35t19.5 27t27.5 17.5t32.5 6.5q18 0 34 -6.5t29 -18t20.5 -27t7.5 -34.5q0 -38 -25.5 -63.5t-63.5 -25.5q-35 0 -62 24t-27 65zM177 0v1024h127v-1024h-127zM218 1251q0 19 7.5 35t19.5 27t27.5 17.5t31.5 6.5q18 0 34.5 -6.5t29.5 -18t21 -27 t8 -34.5q0 -38 -26.5 -63.5t-64.5 -25.5q-17 0 -32.5 6.5t-28 18t-20 28t-7.5 36.5z" />
<glyph unicode="&#xf0;" horiz-adv-x="995" d="M27 506q0 238 128 390t340 152q102 0 182 -45q-75 119 -158 203q-69 -35 -146 -73.5t-146 -72.5l-51 102l258 125q-58 51 -125.5 102.5t-144.5 105.5h211q45 -32 87.5 -66.5t90.5 -79.5q71 35 146.5 73.5t147.5 73.5l51 -103l-263 -128q75 -81 129.5 -167.5t93.5 -183.5 q82 -200 82 -404q0 -235 -120 -383q-124 -151 -334 -151q-221 0 -341 145q-118 145 -118 385zM157 504q0 -191 89 -301h-1q90 -108 243 -108q148 0 232 110q89 112 89 307q0 417 -314 417q-153 0 -243 -115q-95 -119 -95 -310z" />
<glyph unicode="&#xf1;" horiz-adv-x="1096" d="M58 0v1024h127v-124q126 149 321 148q169 0 259 -111.5t90 -317.5v-619h-127v593q0 167 -60 250.5t-176 85.5q-102 -11 -182 -56.5t-125 -129.5v-743h-127zM272 1143q0 123 50 185q26 32 60.5 49.5t77.5 17.5q75 0 167 -75q60 -52 100 -52q30 0 51.5 35.5t21.5 104.5h110 q0 -59 -13.5 -105.5t-38.5 -79.5t-60.5 -50.5t-79.5 -17.5q-35 0 -75 20.5t-83 57.5q-54 48 -102 48q-79 0 -79 -138h-107z" />
<glyph unicode="&#xf2;" horiz-adv-x="1149" d="M40 506q0 128 33.5 226.5t102.5 171.5q136 144 360 144q219 0 348 -144q127 -143 127 -394q0 -237 -130 -385q-130 -149 -355 -149q-112 0 -201 36.5t-155 111.5q-130 148 -130 382zM171 504q0 -186 96 -298q97 -111 262 -111q168 0 260 109q91 109 91 308q0 203 -90 310 t-257 107q-165 0 -264 -111q-98 -110 -98 -314zM241 1498h149l253 -355h-134z" />
<glyph unicode="&#xf3;" horiz-adv-x="1149" d="M40 506q0 128 33.5 226.5t102.5 171.5q136 144 360 144q219 0 348 -144q127 -143 127 -394q0 -237 -130 -385q-130 -149 -355 -149q-112 0 -201 36.5t-155 111.5q-130 148 -130 382zM171 504q0 -186 96 -298q97 -111 262 -111q168 0 260 109q91 109 91 308q0 203 -90 310 t-257 107q-165 0 -264 -111q-98 -110 -98 -314zM291 1143l254 355h148l-268 -355h-134z" />
<glyph unicode="&#xf4;" horiz-adv-x="1149" d="M40 506q0 128 33.5 226.5t102.5 171.5q136 144 360 144q219 0 348 -144q127 -143 127 -394q0 -237 -130 -385q-130 -149 -355 -149q-112 0 -201 36.5t-155 111.5q-130 148 -130 382zM171 504q0 -186 96 -298q97 -111 262 -111q168 0 260 109q91 109 91 308q0 203 -90 310 t-257 107q-165 0 -264 -111q-98 -110 -98 -314zM215 1143l238 362h65l235 -362h-129l-140 215q-34 -50 -72.5 -108t-70.5 -107h-126z" />
<glyph unicode="&#xf5;" horiz-adv-x="1149" d="M40 506q0 128 33.5 226.5t102.5 171.5q136 144 360 144q219 0 348 -144q127 -143 127 -394q0 -237 -130 -385q-130 -149 -355 -149q-112 0 -201 36.5t-155 111.5q-130 148 -130 382zM171 504q0 -186 96 -298q97 -111 262 -111q168 0 260 109q91 109 91 308q0 203 -90 310 t-257 107q-165 0 -264 -111q-98 -110 -98 -314zM287 1143q0 123 50 185q26 32 60.5 49.5t77.5 17.5q75 0 167 -75q60 -52 100 -52q30 0 51.5 35.5t21.5 104.5h110q0 -59 -13.5 -105.5t-38.5 -79.5t-60.5 -50.5t-79.5 -17.5q-35 0 -75 20.5t-83 57.5q-54 48 -102 48 q-79 0 -79 -138h-107z" />
<glyph unicode="&#xf6;" horiz-adv-x="1149" d="M40 506q0 128 33.5 226.5t102.5 171.5q136 144 360 144q219 0 348 -144q127 -143 127 -394q0 -237 -130 -385q-130 -149 -355 -149q-112 0 -201 36.5t-155 111.5q-130 148 -130 382zM171 504q0 -186 96 -298q97 -111 262 -111q168 0 260 109q91 109 91 308q0 203 -90 310 t-257 107q-165 0 -264 -111q-98 -110 -98 -314zM223 1232q0 19 7.5 35t19.5 27t27.5 17.5t32.5 6.5q18 0 34 -6.5t29 -18t20.5 -27t7.5 -34.5q0 -38 -25.5 -63.5t-63.5 -25.5q-35 0 -62 24t-27 65zM544 1232q0 19 7.5 35t19.5 27t27.5 17.5t31.5 6.5q18 0 34.5 -6.5 t29.5 -18t21 -27t8 -34.5q0 -38 -26.5 -63.5t-64.5 -25.5q-17 0 -32.5 6.5t-28 18t-20 28t-7.5 36.5z" />
<glyph unicode="&#xf7;" horiz-adv-x="919" d="M-5 534v119h912v-119h-912zM358 262q0 39 27.5 65.5t66.5 26.5t65.5 -26.5t26.5 -65.5t-26.5 -67t-65.5 -28q-20 0 -37 7.5t-29.5 20.5t-20 30t-7.5 37zM358 928q0 39 27.5 65.5t66.5 26.5t65.5 -26.5t26.5 -65.5t-26.5 -67t-65.5 -28q-20 0 -37 7.5t-29.5 20.5t-20 30 t-7.5 37z" />
<glyph unicode="&#xf8;" horiz-adv-x="1192" d="M25 -19l165 184q-100 140 -100 341q0 128 33.5 226.5t102.5 171.5q136 144 361 144q189 0 308 -103q39 43 83.5 92t81.5 91l88 -79l-176 -194q89 -136 89 -345q0 -237 -130 -385q-128 -149 -355 -149q-91 0 -166.5 25.5t-138.5 75.5q-38 -42 -81.5 -89.5t-79.5 -87.5z M221 504q0 -69 14 -130t43 -112l532 590q-87 77 -227 77q-164 0 -264 -111q-98 -112 -98 -314zM354 171q91 -76 225 -76q168 0 260 109q91 109 91 308q0 72 -11.5 132.5t-36.5 110.5z" />
<glyph unicode="&#xf9;" horiz-adv-x="1096" d="M50 435v589h128v-567q0 -190 61.5 -276t192.5 -86q88 -1 159.5 49.5t129.5 148.5v731h127v-1024h-127v138q-134 -171 -303 -162h1q-369 0 -369 459zM207 1498h149l253 -355h-134z" />
<glyph unicode="&#xfa;" horiz-adv-x="1096" d="M50 435v589h128v-567q0 -190 61.5 -276t192.5 -86q88 -1 159.5 49.5t129.5 148.5v731h127v-1024h-127v138q-134 -171 -303 -162h1q-369 0 -369 459zM293 1143l254 355h148l-268 -355h-134z" />
<glyph unicode="&#xfb;" horiz-adv-x="1096" d="M50 435v589h128v-567q0 -190 61.5 -276t192.5 -86q88 -1 159.5 49.5t129.5 148.5v731h127v-1024h-127v138q-134 -171 -303 -162h1q-369 0 -369 459zM193 1143l238 362h65l235 -362h-129l-140 215q-34 -50 -72.5 -108t-70.5 -107h-126z" />
<glyph unicode="&#xfc;" horiz-adv-x="1096" d="M50 435v589h128v-567q0 -190 61.5 -276t192.5 -86q88 -1 159.5 49.5t129.5 148.5v731h127v-1024h-127v138q-134 -171 -303 -162h1q-369 0 -369 459zM209 1232q0 19 7.5 35t19.5 27t27.5 17.5t32.5 6.5q18 0 34 -6.5t29 -18t20.5 -27t7.5 -34.5q0 -38 -25.5 -63.5 t-63.5 -25.5q-35 0 -62 24t-27 65zM530 1232q0 19 7.5 35t19.5 27t27.5 17.5t31.5 6.5q18 0 34.5 -6.5t29.5 -18t21 -27t8 -34.5q0 -38 -26.5 -63.5t-64.5 -25.5q-17 0 -32.5 6.5t-28 18t-20 28t-7.5 36.5z" />
<glyph unicode="&#xfd;" horiz-adv-x="928" d="M27 1024h140l301 -813l8 -25q2 4 3 8t3 8l322 822h139l-491 -1214q-28 -69 -58.5 -120.5t-67 -85t-81 -50.5t-99.5 -17q-24 0 -49.5 5.5t-51.5 15.5l41 125q25 -19 64 -19q106 0 169 152l89 210q-94 244 -190.5 499t-190.5 499zM198 1143l254 355h148l-268 -355h-134z " />
<glyph unicode="&#xfe;" horiz-adv-x="966" d="M59 -453v1951h127v-629q52 72 126 117q104 62 227 62q197 0 308 -137h-1q111 -135 111 -363q0 -125 -32.5 -229.5t-92.5 -182.5q-63 -76 -148 -118t-186 -42t-178 37t-134 115v-581h-127zM186 269q90 -174 319 -174q70 0 128.5 32t101.5 90q44 62 67.5 144.5t23.5 184.5 q0 176 -83 282q-81 101 -216 101q-227 -1 -341 -228v-432z" />
<glyph unicode="&#xff;" horiz-adv-x="922" d="M1 1024h141l301 -813l8 -25q1 7 5 16l323 822h138l-491 -1214q-28 -69 -58.5 -120.5t-67 -85t-80.5 -50.5t-100 -17q-23 0 -49 5.5t-52 15.5l42 125q23 -19 63 -19q105 0 170 152l88 210q-94 244 -190.5 499t-190.5 499zM213 1232q0 19 7.5 35t19.5 27t27.5 17.5 t31.5 6.5q18 0 34.5 -6.5t29.5 -18t20.5 -27t7.5 -34.5q0 -38 -26 -63.5t-64 -25.5q-34 0 -61 24t-27 65zM534 1232q0 19 7.5 35t19.5 27t27.5 17.5t31.5 6.5q18 0 34.5 -6.5t29 -18t20.5 -27t8 -34.5q0 -38 -26 -63.5t-64 -25.5q-17 0 -32.5 6.5t-28 18t-20 28t-7.5 36.5z " />
<glyph unicode="&#x178;" horiz-adv-x="1106" d="M-3 1434h152l330 -683q6 -12 13.5 -28.5t15.5 -36.5l15 30q8 16 16 33q41 82 85 169t88.5 174t88.5 173.5t85 168.5h147l-463 -889v-545h-134v543q-53 108 -108.5 220t-111 225.5t-111 225.5t-108.5 220zM190 1579q0 19 7.5 35t19.5 27t27.5 17.5t32.5 6.5q18 0 34 -6.5 t29 -18t20.5 -27t7.5 -34.5q0 -38 -25.5 -63.5t-63.5 -25.5q-35 0 -62 24t-27 65zM511 1579q0 19 7.5 35t19.5 27t27.5 17.5t31.5 6.5q18 0 34.5 -6.5t29.5 -18t21 -27t8 -34.5q0 -38 -26.5 -63.5t-64.5 -25.5q-17 0 -32.5 6.5t-28 18t-20 28t-7.5 36.5z" />
<glyph unicode="&#x2c6;" horiz-adv-x="539" d="M-5 1143l238 362h65l235 -362h-129l-140 215q-34 -50 -72.5 -108t-70.5 -107h-126z" />
<glyph unicode="&#x2dc;" horiz-adv-x="730" d="M40 1143q0 123 50 185q26 32 60.5 49.5t77.5 17.5q75 0 167 -75q60 -52 100 -52q30 0 51.5 35.5t21.5 104.5h110q0 -59 -13.5 -105.5t-38.5 -79.5t-60.5 -50.5t-79.5 -17.5q-35 0 -75 20.5t-83 57.5q-54 48 -102 48q-79 0 -79 -138h-107z" />
<glyph unicode="&#x2000;" horiz-adv-x="957" />
<glyph unicode="&#x2001;" horiz-adv-x="1915" />
<glyph unicode="&#x2002;" horiz-adv-x="957" />
<glyph unicode="&#x2003;" horiz-adv-x="1915" />
<glyph unicode="&#x2004;" horiz-adv-x="638" />
<glyph unicode="&#x2005;" horiz-adv-x="478" />
<glyph unicode="&#x2006;" horiz-adv-x="319" />
<glyph unicode="&#x2007;" horiz-adv-x="319" />
<glyph unicode="&#x2008;" horiz-adv-x="239" />
<glyph unicode="&#x2009;" horiz-adv-x="383" />
<glyph unicode="&#x200a;" horiz-adv-x="106" />
<glyph unicode="&#x2010;" horiz-adv-x="708" d="M64 534v125h565v-125h-565z" />
<glyph unicode="&#x2011;" horiz-adv-x="708" d="M64 534v125h565v-125h-565z" />
<glyph unicode="&#x2012;" horiz-adv-x="708" d="M64 534v125h565v-125h-565z" />
<glyph unicode="&#x2013;" horiz-adv-x="1167" d="M60 534v125h1024v-125h-1024z" />
<glyph unicode="&#x2014;" horiz-adv-x="2190" d="M70 534v125h2009v-125h-2009z" />
<glyph unicode="&#x2018;" horiz-adv-x="262" d="M-12 948l161 471h111l-129 -471h-143z" />
<glyph unicode="&#x2019;" horiz-adv-x="261" d="M-3 948l131 471h141l-163 -471h-109z" />
<glyph unicode="&#x201a;" horiz-adv-x="261" d="M-3 -217l131 466h141l-162 -466h-110z" />
<glyph unicode="&#x201c;" horiz-adv-x="556" d="M14 948l161 471h111l-129 -471h-143zM252 948l163 471h110l-131 -471h-142z" />
<glyph unicode="&#x201d;" horiz-adv-x="557" d="M22 948l131 471h141l-164 -471h-108zM259 948l129 471h145l-162 -471h-112z" />
<glyph unicode="&#x201e;" horiz-adv-x="556" d="M22 -220l131 469h141l-163 -469h-109zM260 -220l129 469h144l-162 -469h-111z" />
<glyph unicode="&#x2022;" horiz-adv-x="581" d="M33 705q0 101 74 177q76 75 180 75q101 0 177 -74q73 -74 73 -178q0 -102 -73 -174q-75 -72 -177 -72q-104 0 -180 73q-74 74 -74 173z" />
<glyph unicode="&#x2026;" horiz-adv-x="1216" d="M58 83q0 41 27.5 68t68.5 27t69.5 -27t28.5 -68q0 -21 -7.5 -39t-21 -31t-31.5 -20.5t-38 -7.5q-41 0 -68.5 28t-27.5 70zM497 83q0 41 28 68t69 27t69.5 -27t28.5 -68q0 -21 -7.5 -39t-21 -31t-31.5 -20.5t-38 -7.5t-38 7.5t-31 20.5t-20.5 31t-7.5 39zM941 83 q0 41 27.5 68t68.5 27t70 -27t29 -68q0 -21 -8 -39t-21.5 -31t-31.5 -20.5t-38 -7.5q-41 0 -68.5 28t-27.5 70z" />
<glyph unicode="&#x202f;" horiz-adv-x="383" />
<glyph unicode="&#x2039;" horiz-adv-x="447" d="M-11 536l283 350h158l-287 -350q33 -39 69.5 -83.5t74 -89.5t73.5 -88.5t68 -81.5h-155z" />
<glyph unicode="&#x203a;" horiz-adv-x="447" d="M7 193l291 351q-33 40 -70.5 84t-75 88.5t-74 87.5t-69.5 82h159l282 -342l-281 -351h-162z" />
<glyph unicode="&#x205f;" horiz-adv-x="478" />
<glyph unicode="&#x20ac;" horiz-adv-x="947" d="M14 481v120h130q-2 19 -2 38v40q0 58 3 111h-131v119h146q22 124 66 221t107 166q67 70 149.5 108t176.5 38q65 0 126 -15t119 -43v-144q-70 41 -132.5 61.5t-119.5 20.5q-133 0 -230 -108q-93 -104 -131 -305h518v-119h-535q-1 -17 -1.5 -43.5t-0.5 -55.5v-25v-21 q0 -10 0.5 -20.5t1.5 -23.5h535v-120h-519q16 -96 46 -166.5t75 -119.5q92 -100 220 -100q115 0 273 107v-142q-141 -84 -284 -84q-180 0 -306 136q-121 130 -158 369h-142z" />
<glyph unicode="&#x2122;" horiz-adv-x="1424" d="M39 1305v114h545v-114h-215v-562h-117v562h-213zM638 743v676h143l204 -499q53 123 107 250t107 249h136v-676h-118v441q-48 -110 -96 -222t-94 -219h-91l-181 435v-435h-117z" />
<glyph unicode="&#xe000;" horiz-adv-x="1025" d="M0 0v1025h1025v-1025h-1025z" />
<glyph unicode="&#xfb03;" horiz-adv-x="1448" d="M34 905v119h177v152q0 164 83 250q85 87 210 87q34 0 75 -11.5t91 -36.5l-55 -110q-26 19 -54 29t-61 10q-162 0 -162 -226v-144h417v152q0 166 83 250q85 87 210 87q33 0 74.5 -11.5t91.5 -36.5l-55 -110q-26 19 -54 29t-61 10q-162 0 -162 -226v-144h490v-1024h-127 v905h-363v-905h-127v905h-417v-905h-127v905h-177z" />
<glyph unicode="&#xfb04;" horiz-adv-x="1708" d="M40 905v119h177v152q0 164 84 250q85 87 210 87q33 0 74.5 -11.5t90.5 -36.5l-55 -110q-51 39 -114 39q-163 0 -163 -226v-144h418v152q0 164 84 250q84 87 209 87q292 0 325 -213v-1027q0 -92 28 -133t94 -41q50 0 138 49v-128q-42 -20 -79.5 -29.5t-70.5 -9.5 q-237 0 -237 281v1035q-17 44 -68 70.5t-133 26.5q-163 0 -163 -226v-144h261v-119h-261v-905h-127v905h-418v-905h-127v905h-177z" />
</font>
</defs>
</svg>
